<svg width="236" height="237" viewBox="0 0 236 237" fill="none" xmlns="http://www.w3.org/2000/svg">
<mask id="path-1-inside-1_4_100" fill="white">
<path fill-rule="evenodd" clip-rule="evenodd" d="M118 237C183.17 237 236 183.946 236 118.5C236 53.0543 183.17 0 118 0C52.8304 0 0 53.0543 0 118.5C0 183.946 52.8304 237 118 237ZM145.744 67.6843C134.376 67.6843 123.386 70.8509 115.204 76.5974L68.4688 109.419C67.9357 109.793 67.6183 110.404 67.6183 111.055V151.347L47.6979 165.336C46.794 165.971 46.5758 167.219 47.2106 168.123C47.8454 169.027 49.0928 169.245 49.9968 168.61L70.2504 154.386H128.469C128.882 154.386 129.284 154.258 129.621 154.021L156.933 134.783C157.205 134.67 157.446 134.498 157.642 134.284L176.284 121.153C184.474 115.401 189.309 107.421 189.309 98.875C189.309 90.3289 184.474 82.3488 176.284 76.5974C168.102 70.8509 157.112 67.6843 145.744 67.6843ZM155.448 130.936L173.983 117.881L173.985 117.879C181.386 112.682 185.309 105.813 185.309 98.875C185.309 91.9375 181.386 85.068 173.985 79.8708C166.578 74.6686 156.423 71.6843 145.744 71.6843C135.065 71.6843 124.91 74.6686 117.502 79.8708L71.6183 112.095V148.537L96.1446 131.313C96.158 131.303 96.1715 131.294 96.1852 131.284L144.629 97.2626C145.533 96.6278 146.78 96.846 147.415 97.7499C148.05 98.6538 147.832 99.9012 146.928 100.536L103.641 130.936H155.448ZM97.945 134.936L75.9461 150.386H127.836L149.77 134.936H97.945Z"/>
</mask>
<path fill-rule="evenodd" clip-rule="evenodd" d="M118 237C183.17 237 236 183.946 236 118.5C236 53.0543 183.17 0 118 0C52.8304 0 0 53.0543 0 118.5C0 183.946 52.8304 237 118 237ZM145.744 67.6843C134.376 67.6843 123.386 70.8509 115.204 76.5974L68.4688 109.419C67.9357 109.793 67.6183 110.404 67.6183 111.055V151.347L47.6979 165.336C46.794 165.971 46.5758 167.219 47.2106 168.123C47.8454 169.027 49.0928 169.245 49.9968 168.61L70.2504 154.386H128.469C128.882 154.386 129.284 154.258 129.621 154.021L156.933 134.783C157.205 134.67 157.446 134.498 157.642 134.284L176.284 121.153C184.474 115.401 189.309 107.421 189.309 98.875C189.309 90.3289 184.474 82.3488 176.284 76.5974C168.102 70.8509 157.112 67.6843 145.744 67.6843ZM155.448 130.936L173.983 117.881L173.985 117.879C181.386 112.682 185.309 105.813 185.309 98.875C185.309 91.9375 181.386 85.068 173.985 79.8708C166.578 74.6686 156.423 71.6843 145.744 71.6843C135.065 71.6843 124.91 74.6686 117.502 79.8708L71.6183 112.095V148.537L96.1446 131.313C96.158 131.303 96.1715 131.294 96.1852 131.284L144.629 97.2626C145.533 96.6278 146.78 96.846 147.415 97.7499C148.05 98.6538 147.832 99.9012 146.928 100.536L103.641 130.936H155.448ZM97.945 134.936L75.9461 150.386H127.836L149.77 134.936H97.945Z" fill="#00DC82"/>
<path d="M115.204 76.5974L116.353 78.2341L116.353 78.2341L115.204 76.5974ZM68.4688 109.419L69.6183 111.055L69.6183 111.055L68.4688 109.419ZM67.6183 151.347L68.7677 152.983L69.6183 152.386V151.347H67.6183ZM47.6979 165.336L46.5484 163.7L46.5484 163.7L47.6979 165.336ZM47.2106 168.123L45.5739 169.272L45.5739 169.272L47.2106 168.123ZM49.9968 168.61L51.1462 170.247L51.1462 170.247L49.9968 168.61ZM70.2504 154.386V152.386H69.6183L69.101 152.749L70.2504 154.386ZM129.621 154.021L128.469 152.386L128.469 152.386L129.621 154.021ZM156.933 134.783L156.164 132.937L155.961 133.021L155.782 133.148L156.933 134.783ZM157.642 134.284L156.49 132.649L156.312 132.775L156.164 132.936L157.642 134.284ZM176.284 121.153L175.135 119.516L175.133 119.518L176.284 121.153ZM176.284 76.5974L175.135 78.2341L175.135 78.2341L176.284 76.5974ZM173.983 117.881L172.836 116.242L172.831 116.246L173.983 117.881ZM155.448 130.936V132.936H156.082L156.6 132.571L155.448 130.936ZM173.985 117.879L175.132 119.518L175.135 119.516L173.985 117.879ZM173.985 79.8708L172.836 81.5075L172.836 81.5075L173.985 79.8708ZM117.502 79.8708L116.353 78.2341L116.353 78.2341L117.502 79.8708ZM71.6183 112.095L70.4688 110.458L69.6183 111.055V112.095H71.6183ZM71.6183 148.537H69.6183V152.386L72.7677 150.174L71.6183 148.537ZM96.1446 131.313L97.294 132.95L97.3041 132.942L97.3141 132.935L96.1446 131.313ZM96.1852 131.284L97.3145 132.935L97.3246 132.928L97.3347 132.921L96.1852 131.284ZM144.629 97.2626L143.48 95.6259L143.48 95.6259L144.629 97.2626ZM147.415 97.7499L149.052 96.6005L149.052 96.6005L147.415 97.7499ZM146.928 100.536L148.077 102.173L148.077 102.173L146.928 100.536ZM103.641 130.936L102.491 129.3L97.3129 132.936H103.641V130.936ZM75.9461 150.386L74.7966 148.749L69.6183 152.386H75.9461V150.386ZM97.945 134.936V132.936H97.3129L96.7956 133.3L97.945 134.936ZM127.836 150.386V152.386H128.469L128.987 152.021L127.836 150.386ZM149.77 134.936L150.921 136.571L156.082 132.936H149.77V134.936ZM234 118.5C234 182.849 182.057 235 118 235V239C184.282 239 238 185.042 238 118.5H234ZM118 2C182.057 2 234 54.1508 234 118.5H238C238 51.9577 184.282 -2 118 -2V2ZM2 118.5C2 54.1508 53.9429 2 118 2V-2C51.7179 -2 -2 51.9577 -2 118.5H2ZM118 235C53.9429 235 2 182.849 2 118.5H-2C-2 185.042 51.7179 239 118 239V235ZM116.353 78.2341C124.148 72.7598 134.72 69.6843 145.744 69.6843V65.6843C134.031 65.6843 122.624 68.942 114.054 74.9607L116.353 78.2341ZM69.6183 111.055L116.353 78.2341L114.054 74.9607L67.3194 107.782L69.6183 111.055ZM69.6183 111.055L69.6183 111.055L67.3194 107.782C66.253 108.531 65.6183 109.752 65.6183 111.055H69.6183ZM69.6183 151.347V111.055H65.6183V151.347H69.6183ZM48.8473 166.973L68.7677 152.983L66.4688 149.71L46.5484 163.7L48.8473 166.973ZM48.8473 166.973L48.8473 166.973L46.5484 163.7C44.7406 164.969 44.3043 167.464 45.5739 169.272L48.8473 166.973ZM48.8473 166.973L48.8473 166.973L45.5739 169.272C46.8436 171.08 49.3383 171.516 51.1462 170.247L48.8473 166.973ZM69.101 152.749L48.8473 166.973L51.1462 170.247L71.3999 156.023L69.101 152.749ZM128.469 152.386H70.2504V156.386H128.469V152.386ZM128.469 152.386L128.469 152.386V156.386C129.294 156.386 130.099 156.131 130.773 155.656L128.469 152.386ZM155.782 133.148L128.469 152.386L130.773 155.656L158.085 136.418L155.782 133.148ZM156.164 132.936C156.163 132.938 156.162 132.938 156.164 132.937L157.703 136.629C158.248 136.401 158.73 136.059 159.119 135.632L156.164 132.936ZM175.133 119.518L156.49 132.649L158.793 135.919L177.436 122.788L175.133 119.518ZM187.309 98.875C187.309 106.616 182.931 114.041 175.135 119.516L177.434 122.789C186.017 116.761 191.309 108.226 191.309 98.875H187.309ZM175.135 78.2341C182.931 83.709 187.309 91.1341 187.309 98.875H191.309C191.309 89.5237 186.017 80.9886 177.434 74.9607L175.135 78.2341ZM145.744 69.6843C156.768 69.6843 167.34 72.7598 175.135 78.2341L177.434 74.9607C168.864 68.942 157.457 65.6843 145.744 65.6843V69.6843ZM172.831 116.246L154.297 129.301L156.6 132.571L175.135 119.516L172.831 116.246ZM172.838 116.241L172.836 116.242L175.13 119.519L175.132 119.518L172.838 116.241ZM183.309 98.875C183.309 105.009 179.841 111.323 172.836 116.243L175.135 119.516C182.931 114.041 187.309 106.616 187.309 98.875H183.309ZM172.836 81.5075C179.841 86.4268 183.309 92.7407 183.309 98.875H187.309C187.309 91.1342 182.931 83.7091 175.135 78.2341L172.836 81.5075ZM145.744 73.6843C156.078 73.6843 165.816 76.5773 172.836 81.5075L175.135 78.2341C167.34 72.7598 156.768 69.6843 145.744 69.6843V73.6843ZM118.652 81.5075C125.672 76.5773 135.409 73.6843 145.744 73.6843V69.6843C134.72 69.6843 124.148 72.7598 116.353 78.2341L118.652 81.5075ZM72.7677 113.731L118.652 81.5075L116.353 78.2341L70.4688 110.458L72.7677 113.731ZM73.6183 148.537V112.095H69.6183V148.537H73.6183ZM94.9951 129.676L70.4688 146.901L72.7677 150.174L97.294 132.95L94.9951 129.676ZM97.3141 132.935L97.3145 132.935L95.0559 129.634C95.0296 129.652 95.0026 129.671 94.975 129.69L97.3141 132.935ZM143.48 95.6259L95.0358 129.648L97.3347 132.921L145.779 98.8993L143.48 95.6259ZM149.052 96.6005C147.782 94.7926 145.287 94.3563 143.48 95.6259L145.779 98.8993L145.779 98.8993L149.052 96.6005ZM148.077 102.173C149.885 100.903 150.322 98.4083 149.052 96.6005L145.779 98.8993L145.779 98.8993L148.077 102.173ZM104.79 132.573L148.077 102.173L145.779 98.8993L102.491 129.3L104.79 132.573ZM103.641 132.936H155.448V128.936H103.641V132.936ZM77.0955 152.023L99.0945 136.573L96.7956 133.3L74.7966 148.749L77.0955 152.023ZM127.836 148.386H75.9461V152.386H127.836V148.386ZM148.618 133.301L126.684 148.751L128.987 152.021L150.921 136.571L148.618 133.301ZM149.77 132.936H97.945V136.936H149.77V132.936Z" fill="#00DC82" mask="url(#path-1-inside-1_4_100)"/>
</svg>
